<svg viewBox="-405.2533333333333 -280 810.5066666666665 380" xmlns="http://www.w3.org/2000/svg" xmlns:xlink="http://www.w3.org/1999/xlink" version="1.1" class="jsx-2263963463 artboard-inner" style="width: 229px; height: 107.365px; max-height: 100%;"><g transform="translate(-409.91999999999996 98.66666666666666) scale(1.8518518518518514)" fill="#000000"><g id="line1"><path d="M38.952-52.056C38.136-52.872 37.104-53.280 35.856-53.280C34.608-53.280 33.576-52.860 32.760-52.020C31.944-51.180 31.536-50.136 31.536-48.888L31.536-34.776C30.144-36.072 28.440-37.140 26.424-37.980C24.408-38.820 22.248-39.240 19.944-39.240C16.728-39.240 13.788-38.388 11.124-36.684C8.460-34.980 6.360-32.604 4.824-29.556C3.288-26.508 2.520-23.064 2.520-19.224C2.520-15.384 3.300-11.952 4.860-8.928C6.420-5.904 8.544-3.540 11.232-1.836C13.920-0.132 16.920 0.720 20.232 0.720C22.488 0.720 24.636 0.228 26.676-0.756C28.716-1.740 30.336-2.928 31.536-4.320C31.584-3.072 32.004-2.040 32.796-1.224C33.588-0.408 34.608 0 35.856 0C37.104 0 38.136-0.420 38.952-1.260C39.768-2.100 40.176-3.144 40.176-4.392L40.176-48.888C40.176-50.184 39.768-51.240 38.952-52.056ZM28.944-10.620C26.976-8.340 24.432-7.200 21.312-7.200C18.192-7.200 15.660-8.340 13.716-10.620C11.772-12.900 10.800-15.768 10.800-19.224C10.800-22.680 11.784-25.560 13.752-27.864C15.720-30.168 18.240-31.320 21.312-31.320C24.432-31.320 26.976-30.168 28.944-27.864C30.912-25.560 31.896-22.680 31.896-19.224C31.896-15.768 30.912-12.900 28.944-10.620Z"></path><path d="M80.849-17.352C81.713-18.072 82.169-19.008 82.217-20.160C82.217-23.568 81.377-26.736 79.697-29.664C78.017-32.592 75.773-34.920 72.965-36.648C70.157-38.376 67.169-39.240 64.001-39.240C60.785-39.240 57.761-38.412 54.929-36.756C52.097-35.100 49.817-32.712 48.089-29.592C46.361-26.472 45.497-22.848 45.497-18.720C45.497-15.024 46.313-11.700 47.945-8.748C49.577-5.796 51.893-3.480 54.893-1.800C57.893-0.120 61.409 0.720 65.441 0.720C67.745 0.720 70.025 0.336 72.281-0.432C74.537-1.200 76.337-2.136 77.681-3.240C79.025-4.296 79.697-5.472 79.697-6.768C79.697-7.728 79.337-8.568 78.617-9.288C77.897-10.008 77.033-10.368 76.025-10.368C75.257-10.368 74.441-10.152 73.577-9.720C73.337-9.576 72.893-9.300 72.245-8.892C71.597-8.484 70.721-8.100 69.617-7.740C68.513-7.380 66.977-7.200 65.009-7.200C62.417-7.200 60.089-8.004 58.025-9.612C55.961-11.220 54.641-13.440 54.065-16.272L77.825-16.272C78.977-16.272 79.985-16.632 80.849-17.352ZM54.137-23.472C55.145-28.704 58.433-31.320 64.001-31.320C66.257-31.320 68.273-30.600 70.049-29.160C71.825-27.720 72.809-25.992 73.001-23.976L73.001-23.472Z"></path><path d="M120.946-4.320C120.946-5.520 120.490-6.600 119.578-7.560L106.978-21.240L117.850-31.248C119.002-32.256 119.578-33.336 119.578-34.488C119.578-35.400 119.158-36.300 118.318-37.188C117.478-38.076 116.530-38.520 115.474-38.520C114.274-38.520 113.218-38.064 112.306-37.152L96.898-22.248L96.898-48.888C96.898-50.136 96.490-51.180 95.674-52.020C94.858-52.860 93.826-53.280 92.578-53.280C91.330-53.280 90.298-52.860 89.482-52.020C88.666-51.180 88.258-50.136 88.258-48.888L88.258-4.392C88.258-3.144 88.666-2.100 89.482-1.260C90.298-0.420 91.330 0 92.578 0C93.826 0 94.858-0.420 95.674-1.260C96.490-2.100 96.898-3.144 96.898-4.392L96.898-11.952L100.426-15.192L113.386-1.512C114.250-0.552 115.306-0.072 116.554-0.072C117.610-0.072 118.606-0.480 119.542-1.296C120.478-2.112 120.946-3.120 120.946-4.320Z"></path><path d="M134.366-1.260C135.206-2.100 135.626-3.144 135.626-4.392L135.626-48.888C135.626-50.136 135.218-51.180 134.402-52.020C133.586-52.860 132.578-53.280 131.378-53.280C130.130-53.280 129.086-52.860 128.246-52.020C127.406-51.180 126.986-50.136 126.986-48.888L126.986-4.392C126.986-3.144 127.394-2.100 128.210-1.260C129.026-0.420 130.034 0 131.234 0C132.482 0 133.526-0.420 134.366-1.260Z"></path><path d="M178.099-38.016C177.283-38.832 176.251-39.240 175.003-39.240C173.755-39.240 172.723-38.820 171.907-37.980C171.091-37.140 170.683-36.096 170.683-34.848L170.683-34.776C169.291-36.072 167.587-37.140 165.571-37.980C163.555-38.820 161.395-39.240 159.091-39.240C155.875-39.240 152.935-38.388 150.271-36.684C147.607-34.980 145.507-32.604 143.971-29.556C142.435-26.508 141.667-23.064 141.667-19.224C141.667-15.384 142.447-11.952 144.007-8.928C145.567-5.904 147.691-3.540 150.379-1.836C153.067-0.132 156.067 0.720 159.379 0.720C161.635 0.720 163.783 0.228 165.823-0.756C167.863-1.740 169.483-2.928 170.683-4.320C170.731-3.072 171.151-2.040 171.943-1.224C172.735-0.408 173.755 0 175.003 0C176.251 0 177.283-0.420 178.099-1.260C178.915-2.100 179.323-3.144 179.323-4.392L179.323-34.848C179.323-36.144 178.915-37.200 178.099-38.016ZM168.091-10.620C166.123-8.340 163.579-7.200 160.459-7.200C157.339-7.200 154.807-8.340 152.863-10.620C150.919-12.900 149.947-15.768 149.947-19.224C149.947-22.680 150.931-25.560 152.899-27.864C154.867-30.168 157.387-31.320 160.459-31.320C163.579-31.320 166.123-30.168 168.091-27.864C170.059-25.560 171.043-22.680 171.043-19.224C171.043-15.768 170.059-12.900 168.091-10.620Z"></path><path d="M210.456-38.016C209.472-38.832 208.260-39.240 206.820-39.240C204.468-39.240 202.260-38.724 200.196-37.692C198.132-36.660 196.548-35.160 195.444-33.192L195.444-34.128C195.444-35.376 195.036-36.420 194.220-37.260C193.404-38.100 192.372-38.520 191.124-38.520C189.876-38.520 188.844-38.100 188.028-37.260C187.212-36.420 186.804-35.376 186.804-34.128L186.804-4.392C186.804-3.144 187.212-2.100 188.028-1.260C188.844-0.420 189.876 0 191.124 0C192.372 0 193.404-0.420 194.220-1.260C195.036-2.100 195.444-3.144 195.444-4.392L195.444-21.456C195.444-23.616 195.816-25.476 196.560-27.036C197.304-28.596 198.252-29.760 199.404-30.528C200.556-31.296 201.756-31.680 203.004-31.680C203.580-31.680 204.120-31.608 204.624-31.464C205.128-31.320 205.452-31.224 205.596-31.176C206.508-30.840 207.324-30.672 208.044-30.672C209.100-30.672 210.012-31.044 210.780-31.788C211.548-32.532 211.932-33.648 211.932-35.136C211.932-36.240 211.440-37.200 210.456-38.016Z"></path><path d="M249.581-38.016C248.765-38.832 247.733-39.240 246.485-39.240C245.237-39.240 244.205-38.820 243.389-37.980C242.573-37.140 242.165-36.096 242.165-34.848L242.165-34.776C240.773-36.072 239.069-37.140 237.053-37.980C235.037-38.820 232.877-39.240 230.573-39.240C227.357-39.240 224.417-38.388 221.753-36.684C219.089-34.980 216.989-32.604 215.453-29.556C213.917-26.508 213.149-23.064 213.149-19.224C213.149-15.384 213.929-11.952 215.489-8.928C217.049-5.904 219.173-3.540 221.861-1.836C224.549-0.132 227.549 0.720 230.861 0.720C233.117 0.720 235.265 0.228 237.305-0.756C239.345-1.740 240.965-2.928 242.165-4.320C242.213-3.072 242.633-2.040 243.425-1.224C244.217-0.408 245.237 0 246.485 0C247.733 0 248.765-0.420 249.581-1.260C250.397-2.100 250.805-3.144 250.805-4.392L250.805-34.848C250.805-36.144 250.397-37.200 249.581-38.016ZM239.573-10.620C237.605-8.340 235.061-7.200 231.941-7.200C228.821-7.200 226.289-8.340 224.345-10.620C222.401-12.900 221.429-15.768 221.429-19.224C221.429-22.680 222.413-25.560 224.381-27.864C226.349-30.168 228.869-31.320 231.941-31.320C235.061-31.320 237.605-30.168 239.573-27.864C241.541-25.560 242.525-22.680 242.525-19.224C242.525-15.768 241.541-12.900 239.573-10.620Z"></path><path d="M278.698-7.164C278.146-7.812 277.534-8.136 276.862-8.136C276.334-8.136 275.782-8.016 275.206-7.776C274.534-7.584 274.006-7.488 273.622-7.488C272.710-7.488 271.990-7.716 271.462-8.172C270.934-8.628 270.670-9.360 270.670-10.368L270.670-29.880L275.782-29.880C276.934-29.880 277.894-30.252 278.662-30.996C279.430-31.740 279.814-32.664 279.814-33.768C279.814-34.920 279.430-35.880 278.662-36.648C277.894-37.416 276.934-37.800 275.782-37.800L270.670-37.800L270.670-42.408C270.670-43.656 270.262-44.700 269.446-45.540C268.630-46.380 267.622-46.800 266.422-46.800C265.174-46.800 264.130-46.380 263.290-45.540C262.450-44.700 262.030-43.656 262.030-42.408L262.030-37.800L258.718-37.800C257.566-37.800 256.606-37.428 255.838-36.684C255.070-35.940 254.686-35.016 254.686-33.912C254.686-32.760 255.070-31.800 255.838-31.032C256.606-30.264 257.566-29.880 258.718-29.880L262.030-29.880L262.030-10.008C262.030-5.880 263.050-3.180 265.090-1.908C267.130-0.636 269.638 0 272.614 0C274.390 0 275.986-0.444 277.402-1.332C278.818-2.220 279.526-3.312 279.526-4.608C279.526-5.664 279.250-6.516 278.698-7.164Z"></path><path d="M319.910-8.892C321.638-11.940 322.502-15.384 322.502-19.224C322.502-23.064 321.638-26.508 319.910-29.556C318.182-32.604 315.818-34.980 312.818-36.684C309.818-38.388 306.518-39.240 302.918-39.240C299.270-39.240 295.958-38.388 292.982-36.684C290.006-34.980 287.654-32.604 285.926-29.556C284.198-26.508 283.334-23.064 283.334-19.224C283.334-15.384 284.198-11.940 285.926-8.892C287.654-5.844 290.006-3.480 292.982-1.800C295.958-0.120 299.270 0.720 302.918 0.720C306.518 0.720 309.818-0.120 312.818-1.800C315.818-3.480 318.182-5.844 319.910-8.892ZM312.386-25.524C313.370-23.676 313.862-21.576 313.862-19.224C313.862-16.872 313.370-14.784 312.386-12.960C311.402-11.136 310.082-9.720 308.426-8.712C306.770-7.704 304.934-7.200 302.918-7.200C300.902-7.200 299.066-7.704 297.410-8.712C295.754-9.720 294.434-11.136 293.450-12.960C292.466-14.784 291.974-16.872 291.974-19.224C291.974-21.576 292.466-23.676 293.450-25.524C294.434-27.372 295.754-28.800 297.410-29.808C299.066-30.816 300.902-31.320 302.918-31.320C304.934-31.320 306.770-30.816 308.426-29.808C310.082-28.800 311.402-27.372 312.386-25.524Z"></path><path d="M351.475-38.016C350.491-38.832 349.279-39.240 347.839-39.240C345.487-39.240 343.279-38.724 341.215-37.692C339.151-36.660 337.567-35.160 336.463-33.192L336.463-34.128C336.463-35.376 336.055-36.420 335.239-37.260C334.423-38.100 333.391-38.520 332.143-38.520C330.895-38.520 329.863-38.100 329.047-37.260C328.231-36.420 327.823-35.376 327.823-34.128L327.823-4.392C327.823-3.144 328.231-2.100 329.047-1.260C329.863-0.420 330.895 0 332.143 0C333.391 0 334.423-0.420 335.239-1.260C336.055-2.100 336.463-3.144 336.463-4.392L336.463-21.456C336.463-23.616 336.835-25.476 337.579-27.036C338.323-28.596 339.271-29.760 340.423-30.528C341.575-31.296 342.775-31.680 344.023-31.680C344.599-31.680 345.139-31.608 345.643-31.464C346.147-31.320 346.471-31.224 346.615-31.176C347.527-30.840 348.343-30.672 349.063-30.672C350.119-30.672 351.031-31.044 351.799-31.788C352.567-32.532 352.951-33.648 352.951-35.136C352.951-36.240 352.459-37.200 351.475-38.016Z"></path><path d="M364.104-1.260C364.920-2.100 365.328-3.144 365.328-4.392L365.328-34.128C365.328-35.376 364.920-36.420 364.104-37.260C363.288-38.100 362.256-38.520 361.008-38.520C359.760-38.520 358.728-38.100 357.912-37.260C357.096-36.420 356.688-35.376 356.688-34.128L356.688-4.392C356.688-3.144 357.096-2.100 357.912-1.260C358.728-0.420 359.760 0 361.008 0C362.256 0 363.288-0.420 364.104-1.260ZM357.480-43.992C358.152-43.464 359.304-43.200 360.936-43.200C362.616-43.200 363.804-43.452 364.500-43.956C365.196-44.460 365.544-45.408 365.544-46.800L365.544-48.168C365.544-49.512 365.208-50.448 364.536-50.976C363.864-51.504 362.688-51.768 361.008-51.768C359.424-51.768 358.272-51.504 357.552-50.976C356.832-50.448 356.472-49.512 356.472-48.168L356.472-46.800C356.472-45.456 356.808-44.520 357.480-43.992Z"></path><path d="M403.985-37.260C403.169-38.100 402.137-38.520 400.889-38.520C399.641-38.520 398.609-38.100 397.793-37.260C396.977-36.420 396.569-35.376 396.569-34.128L396.569-15.840C396.569-12.912 395.921-10.740 394.625-9.324C393.329-7.908 391.361-7.200 388.721-7.200C386.129-7.200 384.185-7.908 382.889-9.324C381.593-10.740 380.945-12.912 380.945-15.840L380.945-34.128C380.945-35.376 380.537-36.420 379.721-37.260C378.905-38.100 377.873-38.520 376.625-38.520C375.377-38.520 374.345-38.100 373.529-37.260C372.713-36.420 372.305-35.376 372.305-34.128L372.305-15.840C372.305-10.656 373.721-6.600 376.553-3.672C379.385-0.744 383.441 0.720 388.721 0.720C394.001 0.720 398.069-0.744 400.925-3.672C403.781-6.600 405.209-10.656 405.209-15.840L405.209-34.128C405.209-35.376 404.801-36.420 403.985-37.260Z"></path><path d="M409.810-8.136C409.810-7.272 410.026-6.552 410.458-5.976C412.186-3.624 414.418-1.920 417.154-0.864C419.890 0.192 422.842 0.720 426.010 0.720C428.314 0.720 430.558 0.264 432.742-0.648C434.926-1.560 436.714-2.892 438.106-4.644C439.498-6.396 440.194-8.448 440.194-10.800C440.194-13.392 439.594-15.480 438.394-17.064C437.194-18.648 435.730-19.824 434.002-20.592C432.274-21.360 430.114-22.104 427.522-22.824C425.650-23.352 424.198-23.796 423.166-24.156C422.134-24.516 421.282-25.020 420.610-25.668C419.938-26.316 419.602-27.168 419.602-28.224C419.602-30.864 421.426-32.184 425.074-32.184C426.802-32.184 428.350-31.872 429.718-31.248C431.086-30.624 432.202-29.784 433.066-28.728C433.738-28.056 434.602-27.720 435.658-27.720C436.522-27.720 437.290-27.984 437.962-28.512C438.874-29.232 439.330-30.144 439.330-31.248C439.330-32.208 439.018-33.072 438.394-33.840C437.002-35.616 435.082-36.960 432.634-37.872C430.186-38.784 427.738-39.240 425.290-39.240C422.890-39.240 420.622-38.772 418.486-37.836C416.350-36.900 414.622-35.580 413.302-33.876C411.982-32.172 411.322-30.168 411.322-27.864C411.322-25.224 411.958-23.124 413.230-21.564C414.502-20.004 416.014-18.840 417.766-18.072C419.518-17.304 421.786-16.536 424.570-15.768C427.258-15.048 429.238-14.328 430.510-13.608C431.782-12.888 432.418-11.832 432.418-10.440C432.418-7.752 430.546-6.336 426.802-6.192C424.594-6.192 422.710-6.552 421.150-7.272C419.590-7.992 418.090-9.096 416.650-10.584C415.738-11.496 414.778-11.952 413.770-11.952C413.050-11.952 412.354-11.736 411.682-11.304C410.434-10.440 409.810-9.384 409.810-8.136Z"></path></g></g><g transform="translate(-216.91345303569648 -371.8693992141255) scale(1.084768457814663)" id="logomark"><g fill="#000000"><path d="M61 169l3-4h-2c-8-1-14-9-13-17l1-7c1-5 6-9 11-8l25 3 27-36c7-9 23-17 37-15l126 17c15 2 28 14 32 25 6 16 12 32 18 47l13-6c5-3 11-1 14 4l3 6c3 8 0 17-7 21l-11 5 2 4c10 25 4 113-43 106l-193-26 2 13c1 5-3 10-8 11l-15 3c-5 1-11-3-12-8l-4-25c-40-12-22-92-6-113zm87 77l87 12c3 0 5 3 5 6-1 3-3 5-6 4l-88-12c-3 0-5-3-4-6 0-3 3-5 6-4zm148-12c-11-2-24 5-28 16-5 10 0 20 11 22h6l7-19 15 2c5-10 0-20-11-21zM96 206c11 1 21 12 22 23 2 11-6 19-16 18-11-2-21-12-23-23-2-12 6-20 17-18zm56-96l1 25 27 22 20-4h3l2 2 10 19c6-4 12-3 19-2l4 1c-1-3-1-5-1-8 1-1 1-1 1-2l-5-8-12 3h-4l-1-3-5-21-15 6-3 2-2-4-15-33-28-3c-4-1-18 3-22 8l-14 26 33-3-1-22 8-1zm124 45l21-6-4-16c-2-4-8-9-13-12l-25 13 2 13h5c6 1 10 4 14 8zm23 2l-19 6v8c0 3-1 5-2 8 4 1 8 3 10 8l5 10 16 2-10-42zm-50-8l-2-17-1-2 3-2 19-10-82-11 11 24 15-6 4-2 2 5 5 21 12-2 3-1 1 3 4 5c1-2 3-3 6-5zm-40 31l-10-18-20 3-2 1-1-2-28-23-41 3v-1l-15 26 52-7 32 19 28 4 5-5z" fill="#000000"></path></g></g></svg>